# xmcd CD database file
#
# Track frame offsets:
#	150
#	19259
#	35679
#	51552
#	66649
#	84699
#	101631
#	116891
#	132068
#	150648
#	164536
#
# Disc length: 2417 seconds
#
# Revision: 1
# Processed by: cddbd v1.5.2PL0 Copyright (c) Steve Scherf et al.
# Submitted via: CDex 2.14
#
DISCID=a1096f0b
DTITLE=Josh Turner - Long Black Train
DYEAR=2003
DGENRE=Country
TTITLE0=Long Black Train
TTITLE1=In My Dreams
TTITLE2=What It Ain't
TTITLE3=I Had One One Time
TTITLE4=Jacksonville
TTITLE5=Backwoods Boy
TTITLE6=Unburn All Our Bridges
TTITLE7=You Don't Mess Around With Jim
TTITLE8=She'll Go On You
TTITLE9=Good Woman Bad
TTITLE10=The Difference Between A Woman And A Man
EXTD=YEAR: 2003
EXTT0=
EXTT1=
EXTT2=
EXTT3=
EXTT4=
EXTT5=
EXTT6=
EXTT7=
EXTT8=
EXTT9=
EXTT10=
PLAYORDER=
